<?xml version="1.0" standalone="no"?>
<!DOCTYPE svg PUBLIC "-//W3C//DTD SVG 20010904//EN"
 "http://www.w3.org/TR/2001/REC-SVG-20010904/DTD/svg10.dtd">
<svg version="1.0" xmlns="http://www.w3.org/2000/svg"
 width="110.000000pt" height="110.000000pt" viewBox="0 0 110.000000 110.000000"
 preserveAspectRatio="xMidYMid meet">

<g transform="translate(0.000000,110.000000) scale(0.100000,-0.100000)"
fill="#000000" stroke="none">
<path d="M432 1005 c-107 -30 -205 -113 -256 -218 -51 -104 -46 -265 11 -366
27 -47 133 -167 133 -151 0 5 -18 28 -40 52 -22 24 -57 76 -77 116 -34 67 -36
79 -36 161 0 77 3 96 30 154 42 88 101 150 182 190 55 27 79 33 151 35 102 4
173 -18 250 -79 59 -47 77 -77 86 -150 4 -34 22 -83 47 -132 l41 -77 -42 -43
c-41 -42 -42 -45 -42 -109 0 -99 -15 -113 -121 -112 -90 2 -89 -11 3 -21 105
-12 131 12 143 132 6 58 10 65 46 94 49 39 50 61 4 150 -19 38 -35 82 -35 97
0 16 -7 51 -15 79 -19 62 -99 142 -181 180 -71 32 -201 41 -282 18z"/>
<path d="M638 283 c7 -3 16 -2 19 1 4 3 -2 6 -13 5 -11 0 -14 -3 -6 -6z"/>
</g>
</svg>
